<svg xmlns="http://www.w3.org/2000/svg" version="1.1" xmlns:xlink="http://www.w3.org/1999/xlink" xmlns:svgjs="http://svgjs.dev/svgjs" width="100%" height="100%" viewBox="0 0 1000 600"><rect width="1000" height="600" x="0" y="0" fill="#e81309"/><g><circle r="166.66666666666666" cx="450.53568522135413" cy="472.7576970081134" fill="#ffffff" transform="matrix(0.440344262339744,0,0,0.44034426233974394,0,91.82386229247402)"/><path d="M385.2104149866552 400.97337300530677L385.2104149866552 400.97337300530677Q397.3800692570717 400.97337300530677 401.76003594209624 400.1971763775809L401.76003594209624 400.1971763775809L401.76003594209624 400.58527469144383Q402.3421834128907 404.6880282951377 405.3360846912619 414.52909268237653Q408.3022646615001 424.37015706961535 409.2725104461574 426.61558302839376L409.2725104461574 426.61558302839376L445.3379323272776 520.5630962913579Q446.5022272688664 523.501554953463 448.2486696812496 525.1093908251809Q450.0228334017659 526.7172266968987 453.8206526159961 526.7172266968987L453.8206526159961 526.7172266968987Q457.23037351636333 526.7172266968987 460.0579469459362 527.8815216384876Q462.88552037550903 529.0458165800765 463.55083177070264 531.374406463254L463.55083177070264 531.374406463254Q463.1627334568397 537.6117007931941 463.1627334568397 541.4095200074242L463.1627334568397 541.4095200074242Q463.1627334568397 545.1241752972553 461.4994549688557 546.2053063144449L461.4994549688557 546.2053063144449Q446.89032558272936 545.1241752972553 436.9383759629583 545.1241752972553L436.9383759629583 545.1241752972553Q417.06219803154926 545.1241752972553 409.7714939925526 546.2053063144449L409.7714939925526 546.2053063144449Q408.1082155045686 540.5501594552991 408.1082155045686 530.5982098355281L408.1082155045686 530.5982098355281Q408.1082155045686 528.2696199523505 411.57337902120196 527.5765872490238Q415.0108212297023 526.9112758538301 418.47598474633566 526.412292307435Q421.941148262969 525.9133087610398 421.941148262969 523.9728171917251L421.941148262969 523.9728171917251Q421.941148262969 522.6144730932049 421.0540664027109 520.3690471344264L421.0540664027109 520.3690471344264L411.7951494862665 494.144689640545L360.6493359807579 494.144689640545L351.7785173781764 520.3690471344264Q350.89143551791824 523.0025714070678 350.89143551791824 523.9728171917251L350.89143551791824 523.9728171917251Q350.89143551791824 525.9133087610398 354.4120416508178 526.412292307435Q357.90492647558426 526.9112758538301 361.42553260848376 527.5765872490238Q364.91841743325017 528.2696199523505 364.91841743325017 530.5982098355281L364.91841743325017 530.5982098355281Q363.7541224916614 543.0727984954083 362.2848931606088 546.2053063144449L362.2848931606088 546.2053063144449Q346.8995671467566 545.1241752972553 336.67040444565487 545.1241752972553L336.67040444565487 545.1241752972553Q330.71032319704545 545.1241752972553 313.27362038134635 546.2053063144449L313.27362038134635 546.2053063144449Q311.6103418933623 545.1241752972553 311.6103418933623 541.4095200074242L311.6103418933623 541.4095200074242Q311.6103418933623 537.6117007931941 312.1924893641567 531.374406463254L312.1924893641567 531.374406463254Q312.8855220674834 529.0458165800765 315.60221026452393 527.8815216384876Q318.3466197696976 526.7172266968987 321.75634067006484 526.7172266968987L321.75634067006484 526.7172266968987Q325.554159884295 526.7172266968987 327.3006022966782 525.1093908251809Q329.0747660171945 523.501554953463 330.23906095878334 520.5630962913579L330.23906095878334 520.5630962913579L366.3044828399035 424.67509145907906Q367.0806794676294 422.5128294246998 367.0806794676294 421.45941971564326L367.0806794676294 421.45941971564326Q367.0806794676294 419.4912068381955 365.02930266578244 418.88133805926805Q362.9779258639355 418.2437479722075 360.5938933644917 418.43779712913897Q358.209860865048 418.63184628607047 356.158484063201 417.8002070420784Q354.10710726135403 416.96856779808644 354.10710726135403 414.83402707184024L354.10710726135403 414.83402707184024Q354.10710726135403 414.6399779149088 354.30115641828553 413.8360599790498L354.30115641828553 413.8360599790498Q355.6595005168058 402.9415858827545 357.71087731865276 400.1971763775809L357.71087731865276 400.1971763775809Q369.71420374027076 400.97337300530677 385.2104149866552 400.97337300530677ZM389.0913981252846 429.8312547718295L386.4578738526433 422.7068785816313Q376.2287111515415 447.6560559013916 365.72233536910915 479.3415110974872L365.72233536910915 479.3415110974872L406.63898617351606 479.3415110974872Q401.95408509902774 465.20364394962303 396.9088070188095 451.06577680175883Q391.83580763045825 436.9556309620277 389.0913981252846 429.8312547718295L389.0913981252846 429.8312547718295ZM583.5286533706167 448.238203372186L583.5286533706167 448.238203372186L575.4340313957612 448.238203372186Q574.546949535503 448.238203372186 573.1886054369827 446.43631834353664Q571.8302613384624 444.6344333148873 570.028376309813 441.80685988531445Q568.2264912811636 438.9792864557416 565.8979013979861 435.54184424724133Q563.5415902066753 432.07668073060796 560.3813610795057 428.6669598302407Q557.221131952336 425.2572389298735 553.6450832031705 422.4296655003006Q550.096755762138 419.6020920707278 545.2732481469842 417.8002070420784Q540.4497405318305 415.99832201342906 535.29357721908 415.99832201342906L535.29357721908 415.99832201342906Q526.2287094595672 415.99832201342906 518.5221857985745 419.269436373131Q510.81566213758185 422.5128294246998 505.4654496679 428.02936974318015Q500.115237198218 433.5459100616605 496.2619753677217 440.89205671692326Q492.40871353722537 448.238203372186 490.6068285085761 456.44371057957386Q488.8049434799267 464.62149647882865 488.8049434799267 473.1873806919463L488.8049434799267 473.1873806919463Q488.8049434799267 481.3928878993342 490.99492682243897 489.12713286845985Q493.18491016495125 496.8890991457186 497.70348339064117 503.79170487085236Q502.2497779244642 510.7220319041191 508.62567879506963 515.9336378331357Q515.0015796656751 521.1452437621522 524.0664474251879 524.2223089649227Q533.1313151847008 527.2993741676931 543.7762975077985 527.2993741676931L543.7762975077985 527.2993741676931Q566.4800488687804 527.2993741676931 585.6631940968628 512.9674578628975L585.6631940968628 512.9674578628975Q589.461013311093 518.0404572512488 589.461013311093 522.8916861745355L589.461013311093 522.8916861745355Q589.461013311093 529.9328984403345 581.9208174988987 535.8098157645447Q574.3529003785716 541.714454396888 563.347541049744 544.7360769833923Q552.3421817209162 547.7576995698967 541.1427732351572 547.7576995698967L541.1427732351572 547.7576995698967Q526.1178242270348 547.7576995698967 513.5046290264894 543.5717820418035Q500.8914338259439 539.3858645137104 492.10377914776166 532.2614883235121Q483.3438457777125 525.1371121333138 477.16199406403854 515.6564247518049Q470.95242104223155 506.148016062163 468.09712630452566 495.53075504719834Q465.2141102586867 484.8857727241006 465.2141102586867 473.60320031394235L465.2141102586867 473.60320031394235Q465.2141102586867 458.30103822448933 470.17622441450567 444.44038415795586Q475.1660598784577 430.6074513995554 483.92599324850687 420.2674034659214Q492.6859266185561 409.9550768404205 505.6594988248314 403.85638905114575Q518.6330710311067 397.757701261871 533.630298731096 397.757701261871L533.630298731096 397.757701261871Q543.1664287288711 397.757701261871 552.9797718079768 401.9990614062302Q562.7653935789494 406.2404215505895 568.8086387519581 414.52909268237653L568.8086387519581 414.52909268237653Q568.8086387519581 399.91996329625016 572.6064579661884 399.91996329625016L572.6064579661884 399.91996329625016L583.5286533706167 399.91996329625016Q588.213554445105 399.91996329625016 588.213554445105 410.0382407648197L588.213554445105 410.0382407648197L588.213554445105 436.0685491017696Q588.213554445105 441.612810728383 587.6591282824436 444.2186136928913Q587.1324234279155 446.79669534926654 586.3007841839233 447.43428543632706Q585.4691449399313 448.04415421525454 583.5286533706167 448.238203372186Z " fill="#358597" transform="matrix(0.440344262339744,0,0,0.44034426233974394,0,91.82386229247402)"/><path d="M774.1357537317724 400.97337300530677L774.1357537317724 400.97337300530677Q786.3054080021889 400.97337300530677 790.6853746872134 400.1971763775809L790.6853746872134 400.1971763775809L790.6853746872134 400.58527469144383Q791.2675221580079 404.6880282951377 794.2614234363791 414.52909268237653Q797.2276034066173 424.37015706961535 798.1978491912746 426.61558302839376L798.1978491912746 426.61558302839376L834.2632710723948 520.5630962913579Q835.4275660139837 523.501554953463 837.1740084263669 525.1093908251809Q838.9481721468832 526.7172266968987 842.7459913611133 526.7172266968987L842.7459913611133 526.7172266968987Q846.1557122614806 526.7172266968987 848.9832856910534 527.8815216384876Q851.8108591206262 529.0458165800765 852.4761705158198 531.374406463254L852.4761705158198 531.374406463254Q852.088072201957 537.6117007931941 852.088072201957 541.4095200074242L852.088072201957 541.4095200074242Q852.088072201957 545.1241752972553 850.4247937139729 546.2053063144449L850.4247937139729 546.2053063144449Q835.8156643278465 545.1241752972553 825.8637147080756 545.1241752972553L825.8637147080756 545.1241752972553Q805.9875367766665 545.1241752972553 798.6968327376699 546.2053063144449L798.6968327376699 546.2053063144449Q797.0335542496858 540.5501594552991 797.0335542496858 530.5982098355281L797.0335542496858 530.5982098355281Q797.0335542496858 528.2696199523505 800.4987177663191 527.5765872490238Q803.9361599748195 526.9112758538301 807.4013234914529 526.412292307435Q810.8664870080862 525.9133087610398 810.8664870080862 523.9728171917251L810.8664870080862 523.9728171917251Q810.8664870080862 522.6144730932049 809.9794051478282 520.3690471344264L809.9794051478282 520.3690471344264L800.7204882313837 494.144689640545L749.5746747258751 494.144689640545L740.7038561232937 520.3690471344264Q739.8167742630355 523.0025714070678 739.8167742630355 523.9728171917251L739.8167742630355 523.9728171917251Q739.8167742630355 525.9133087610398 743.337380395935 526.412292307435Q746.8302652207014 526.9112758538301 750.350871353601 527.5765872490238Q753.8437561783674 528.2696199523505 753.8437561783674 530.5982098355281L753.8437561783674 530.5982098355281Q752.6794612367786 543.0727984954083 751.210231905726 546.2053063144449L751.210231905726 546.2053063144449Q735.8249058918739 545.1241752972553 725.595743190772 545.1241752972553L725.595743190772 545.1241752972553Q719.6356619421626 545.1241752972553 702.1989591264635 546.2053063144449L702.1989591264635 546.2053063144449Q700.5356806384796 545.1241752972553 700.5356806384796 541.4095200074242L700.5356806384796 541.4095200074242Q700.5356806384796 537.6117007931941 701.1178281092739 531.374406463254L701.1178281092739 531.374406463254Q701.8108608126006 529.0458165800765 704.5275490096412 527.8815216384876Q707.2719585148147 526.7172266968987 710.6816794151821 526.7172266968987L710.6816794151821 526.7172266968987Q714.4794986294123 526.7172266968987 716.2259410417955 525.1093908251809Q718.0001047623118 523.501554953463 719.1643997039006 520.5630962913579L719.1643997039006 520.5630962913579L755.2298215850208 424.67509145907906Q756.0060182127467 422.5128294246998 756.0060182127467 421.45941971564326L756.0060182127467 421.45941971564326Q756.0060182127467 419.4912068381955 753.9546414108997 418.88133805926805Q751.9032646090527 418.2437479722075 749.519232109609 418.43779712913897Q747.1351996101653 418.63184628607047 745.0838228083182 417.8002070420784Q743.0324460064712 416.96856779808644 743.0324460064712 414.83402707184024L743.0324460064712 414.83402707184024Q743.0324460064712 414.6399779149088 743.2264951634027 413.8360599790498L743.2264951634027 413.8360599790498Q744.584839261923 402.9415858827545 746.63621606377 400.1971763775809L746.63621606377 400.1971763775809Q758.639542485388 400.97337300530677 774.1357537317724 400.97337300530677ZM778.0167368704018 429.8312547718295L775.3832125977605 422.7068785816313Q765.1540498966588 447.6560559013916 754.6476741142263 479.3415110974872L754.6476741142263 479.3415110974872L795.5643249186332 479.3415110974872Q790.879423844145 465.20364394962303 785.8341457639267 451.06577680175883Q780.7611463755754 436.9556309620277 778.0167368704018 429.8312547718295L778.0167368704018 429.8312547718295ZM977.5269915040851 545.9003719249811L977.5269915040851 545.9003719249811Q968.0740254307093 545.1241752972553 960.478387002249 545.1241752972553L960.478387002249 545.1241752972553Q955.4885515382969 545.1241752972553 949.6393555222197 545.5122736111182Q943.7901595061426 545.9003719249811 941.9605531693602 545.9003719249811L941.9605531693602 545.9003719249811Q938.6339961933921 545.9003719249811 938.6339961933921 538.4987826534523L938.6339961933921 538.4987826534523L938.6339961933921 480.11770772521305Q938.6339961933921 467.44906990840144 934.5312425896982 461.54443127605816Q930.4562102941373 455.667513951848 923.8308176503343 455.667513951848L923.8308176503343 455.667513951848Q917.0113758495999 455.667513951848 908.8613112584782 459.5207757823443Q900.7112466673565 463.34631630470756 893.6145917852913 469.3063975533169L893.6145917852913 469.3063975533169L893.6145917852913 520.6739815238901Q893.6145917852913 522.1154895468096 893.7531983259566 522.9471287908016Q893.8918048666219 523.7787680347936 894.4462310292834 524.8598990519832Q894.9729358838116 525.9133087610398 896.3312799823318 526.4677349237011Q897.6896240808521 526.9944397782294 899.8518861152314 526.9944397782294L899.8518861152314 526.9944397782294Q903.5388200969293 526.9944397782294 906.1723443695707 528.1587347198183Q908.805868642212 529.323029661407 908.805868642212 531.6793408527178L908.805868642212 531.6793408527178Q908.805868642212 543.0727984954083 905.5901968987762 545.9003719249811L905.5901968987762 545.9003719249811Q899.6578369582999 545.1241752972553 883.2745438516573 545.1241752972553Q866.9189720531479 545.1241752972553 859.6005467060181 545.9003719249811L859.6005467060181 545.9003719249811Q856.3848749625823 542.989634571009 856.3848749625823 531.6793408527178L856.3848749625823 531.6793408527178Q856.3848749625823 529.323029661407 859.0183992352237 528.1587347198183Q861.651923507865 526.9944397782294 865.338857489563 526.9944397782294L865.338857489563 526.9944397782294Q869.1366767037931 526.9944397782294 870.328692953515 525.3866039065115Q871.4929878951039 523.7787680347936 871.4929878951039 520.8680306808217L871.4929878951039 520.8680306808217L871.4929878951039 468.5302009255911Q871.4929878951039 463.34631630470756 868.5268079248657 461.21177557846136Q865.5329066464944 459.0772348522152 857.0501863577759 458.6891365383523L857.0501863577759 458.6891365383523Q855.8027274917879 458.38420214888856 855.442350486058 457.4139563642312Q855.1096947884612 456.44371057957386 855.1096947884612 453.22803883613807L855.1096947884612 453.22803883613807Q855.1096947884612 448.238203372186 856.1908258056508 444.44038415795586Q857.2442355147074 440.64256494372563 858.325366531897 440.06041747293125L858.325366531897 440.06041747293125Q864.7567100187686 441.1415484901209 870.9108404243094 441.1415484901209L870.9108404243094 441.1415484901209Q875.290807109334 441.1415484901209 880.1697573407538 440.5871223274595Q885.0209862640405 440.06041747293125 885.3259206535042 440.06041747293125L885.3259206535042 440.06041747293125Q888.7356415538715 440.06041747293125 889.761329954795 441.7791385771814Q890.7870183557184 443.4701383732985 890.7870183557184 449.62426877883934L890.7870183557184 449.62426877883934Q890.7870183557184 450.289580174033 890.7315757394523 452.09146520268234Q890.6761331231862 453.8933502313317 890.6761331231862 454.9744812485213L890.6761331231862 454.9744812485213Q899.0756894875055 447.5728919769924 909.6929505024702 442.99887613503637Q920.3102115174348 438.3971389849472 930.1512759046736 438.3971389849472L930.1512759046736 438.3971389849472Q943.7901595061426 438.3971389849472 952.2728797948612 448.04415421525454Q960.7556000835796 457.69116944556185 960.7556000835796 478.37126531282985L960.7556000835796 478.37126531282985L960.7556000835796 520.2858832100271Q960.7556000835796 526.6063414643666 965.6345503149994 526.9944397782294L965.6345503149994 526.9944397782294Q966.6047960996568 527.1053250107616 968.2126319713747 527.1884889351609Q969.8204678430925 527.2993741676931 970.7352710114837 527.3825380920923Q971.6777954880081 527.4934233246247 973.0361395865283 527.63202986529Q974.3944836850486 527.7706364059552 975.1706803127745 527.9092429466207Q975.9468769405003 528.075570795419 976.9725653414239 528.3250625686167Q977.9982537423473 528.5468330336812 978.5804012131417 528.8517674231449Q979.1902699920693 529.1289805044755 979.7169748465974 529.5170788183385Q980.2436797011258 529.9328984403345 980.4931714743234 530.4596032948627Q980.7426632475209 530.9863081493911 980.7426632475209 531.6793408527178L980.7426632475209 531.6793408527178Q980.7426632475209 542.989634571009 977.5269915040851 545.9003719249811ZM1070.0052754359967 499.91072173222295L1070.0052754359967 499.91072173222295L1070.0052754359967 474.4625608660674Q1064.8491121232464 465.20364394962303 1056.3663918345278 460.04748063687254Q1047.8836715458092 454.8913173241221 1038.8188037862963 454.8913173241221L1038.8188037862963 454.8913173241221Q1026.3442151264162 454.8913173241221 1017.8060522214316 464.6769390950947Q1009.2956106245799 474.4625608660674 1009.2956106245799 493.17444385588766L1009.2956106245799 493.17444385588766Q1009.2956106245799 511.11013021798203 1018.4436423084921 521.1452437621522Q1027.6193953005372 531.1803573063225 1040.1771478848166 531.1803573063225L1040.1771478848166 531.1803573063225Q1045.6382455870307 531.1803573063225 1050.9052941323134 529.1844231207417Q1056.1723426775964 527.1884889351609 1060.4691454382216 523.3906697209306Q1064.738226890714 519.5928505067005 1067.3717511633554 513.4941627174258Q1070.0052754359967 507.39547492815103 1070.0052754359967 499.91072173222295ZM1092.1268793261843 413.75289605465065L1092.1268793261843 413.75289605465065L1092.1268793261843 520.6739815238901Q1092.1268793261843 522.0323256224103 1092.3209284831157 522.9471287908016Q1092.5149776400472 523.8896532673259 1093.1525677271077 524.9153416682493Q1093.7901578141682 525.9133087610398 1095.259387145221 526.5231775399673Q1096.7008951681403 527.1053250107616 1099.057206359451 527.1884889351609L1099.057206359451 527.1884889351609Q1108.2052380433631 527.5765872490238 1108.2052380433631 531.2912425388547L1108.2052380433631 531.2912425388547Q1108.2052380433631 542.989634571009 1104.9064023755282 545.9003719249811L1104.9064023755282 545.9003719249811Q1099.528468597713 545.1241752972553 1093.291174267773 545.1241752972553L1093.291174267773 545.1241752972553Q1084.5312408977238 545.1241752972553 1076.1594058415376 545.9003719249811L1076.1594058415376 545.9003719249811Q1070.0052754359967 543.0727984954083 1070.0052754359967 532.3446522479114L1070.0052754359967 532.3446522479114L1070.0052754359967 531.4852916957863Q1064.738226890714 539.274979281178 1055.0912116604068 543.5163394255374Q1045.4441964300995 547.7576995698967 1035.2150337289977 547.7576995698967L1035.2150337289977 547.7576995698967Q1025.845231580021 547.7576995698967 1017.2793473669033 544.2370934369972Q1008.7134631537856 540.7442086122306 1001.7276935042528 534.1465372765607Q994.7696451628528 527.5765872490238 990.5837276347597 516.9593262340592Q986.3978101066666 506.3420652190945 986.3978101066666 493.17444385588766Q986.3978101066666 480.0345438008139 990.7777767916912 469.38956147771614Q995.1577434767158 458.7723004627515 1002.5038901319786 452.2023504352146Q1009.8777580953744 445.6324004076777 1018.9426258548873 442.1117942747782Q1028.0074936144001 438.5911881418787 1037.848558001639 438.5080242174795L1037.848558001639 438.5080242174795L1038.4307054724334 438.5080242174795Q1057.6415720086488 438.5080242174795 1070.0052754359967 452.8399405222751L1070.0052754359967 452.8399405222751L1070.0052754359967 427.3086157317204Q1070.0052754359967 422.1247311108369 1067.0390954657585 419.99019038459073Q1064.0729154955204 417.8556496583446 1055.590195206802 417.46755134448165L1055.590195206802 417.46755134448165Q1054.3150150326808 417.1626169550179 1053.982359335084 416.19237117036056Q1053.621982329354 415.22212538570324 1053.621982329354 412.00645364226745L1053.621982329354 412.00645364226745Q1053.621982329354 407.01661817831535 1054.703113346544 403.2187989640852Q1055.7842443637333 399.420979749855 1056.83765407279 398.83883227906057L1056.83765407279 398.83883227906057Q1064.9322760476455 399.91996329625016 1072.3338653191743 399.91996329625016L1072.3338653191743 399.91996329625016Q1076.7415533123321 399.91996329625016 1081.5927822356186 399.3655371335889Q1086.4717324670387 398.83883227906057 1086.7766668565023 398.83883227906057L1086.7766668565023 398.83883227906057Q1090.1863877568694 398.83883227906057 1091.212076157793 400.55755338331073Q1092.2377645587164 402.2485531794278 1092.2377645587164 408.4026835849687L1092.2377645587164 408.4026835849687Q1092.2377645587164 409.0679949801623 1092.1823219424505 410.86988000881166Q1092.1268793261843 412.67176503746106 1092.1268793261843 413.75289605465065ZM1150.5911181788226 449.62426877883934L1150.5911181788226 449.62426877883934L1150.5911181788226 455.94472703317865Q1154.9988061719803 448.9312360755127 1163.6755756176303 443.66418753023Q1172.324623755147 438.3971389849472 1180.2251965730711 438.3971389849472L1180.2251965730711 438.3971389849472Q1185.4090811939548 438.3971389849472 1190.06626096031 440.1158600891974Q1194.7511620347982 441.80685988531445 1198.2163255514317 446.2145478784721Q1201.681489068065 450.5945145634967 1201.681489068065 456.914972817836L1201.681489068065 456.914972817836Q1201.681489068065 474.26851170913596 1183.2468191595756 474.26851170913596L1183.2468191595756 474.26851170913596Q1182.8587208457125 474.26851170913596 1182.4706225318496 474.18534778473673Q1182.0825242179867 474.07446255220447 1181.833032444789 473.880413395273Q1181.5835406715914 473.6863642383415 1181.38949151466 473.4923150814101Q1181.1954423577286 473.2982659244786 1181.056835817063 472.91016761061564Q1180.918229276398 472.5220692967527 1180.8073440438657 472.217134907289Q1180.7241801194664 471.9399218259583 1180.613294886934 471.30233173889775Q1180.530130962535 470.66474165183723 1180.4746883462687 470.2766433379743Q1180.4192457300028 469.88854502411135 1180.3915244218697 469.1677910126516Q1180.3360818056035 468.41931569305876 1180.2251965730711 467.94805345479665L1180.2251965730711 467.94805345479665L1179.0609016314825 457.8020546780941Q1176.427377358841 456.52687450397303 1173.3225908479376 456.52687450397303L1173.3225908479376 456.52687450397303Q1167.667443988792 456.52687450397303 1161.95685451338 460.6850707239331Q1156.2462650379682 464.8155456357601 1153.5295768409278 470.2766433379743L1153.5295768409278 470.2766433379743L1153.5295768409278 519.5928505067005Q1153.5295768409278 521.0620798377531 1153.668183381593 521.8937190817451Q1153.8345112303914 522.6976370176039 1154.3612160849198 523.7787680347936Q1154.887920939448 524.8598990519832 1156.2462650379682 525.3866039065115Q1157.6323304446216 525.9133087610398 1159.766871170868 525.9133087610398L1159.766871170868 525.9133087610398Q1163.4815264606987 525.9133087610398 1166.087329425207 527.1053250107616Q1168.7208536978483 528.2696199523505 1168.7208536978483 530.5982098355281L1168.7208536978483 530.5982098355281Q1168.7208536978483 535.2831109100164 1167.1684604423967 539.8571267519726Q1165.6160671869447 544.4311425939286 1162.5944446004405 545.9003719249811L1162.5944446004405 545.9003719249811Q1155.7750027997063 545.1241752972553 1142.6073814364993 545.1241752972553Q1129.4674813814254 545.1241752972553 1122.4262691156264 545.9003719249811L1122.4262691156264 545.9003719249811Q1119.2105973721907 544.4311425939286 1117.7690893492713 539.9125693682386Q1116.2998600182186 535.3662748344157 1116.2998600182186 530.5982098355281L1116.2998600182186 530.5982098355281Q1116.2998600182186 528.2696199523505 1118.93338429086 527.1053250107616Q1121.5669085635013 525.9133087610398 1125.2538425451994 525.9133087610398L1125.2538425451994 525.9133087610398Q1129.0793830675625 525.9133087610398 1130.2436780091514 524.3054728893219Q1131.4079729507403 522.6976370176039 1131.4079729507403 519.786899663632L1131.4079729507403 519.786899663632L1131.4079729507403 468.5302009255911Q1131.4079729507403 463.34631630470756 1128.441792980502 461.21177557846136Q1125.4478917021306 459.0772348522152 1116.9928927215453 458.6891365383523L1116.9928927215453 458.6891365383523Q1115.7177125474243 458.38420214888856 1115.3850568498274 457.4139563642312Q1115.0246798440976 456.44371057957386 1115.0246798440976 453.22803883613807L1115.0246798440976 453.22803883613807Q1115.0246798440976 448.238203372186 1116.1058108612872 444.44038415795586Q1117.1869418784768 440.64256494372563 1118.2403515875335 440.06041747293125L1118.2403515875335 440.06041747293125Q1125.1706786208001 441.1415484901209 1131.7960712646031 441.1415484901209L1131.7960712646031 441.1415484901209Q1135.898824868297 441.1415484901209 1140.417398093987 440.5871223274595Q1144.96369262781 440.06041747293125 1145.2409057091406 440.06041747293125L1145.2409057091406 440.06041747293125Q1148.650626609508 440.06041747293125 1149.6208723941652 441.7791385771814Q1150.5911181788226 443.4701383732985 1150.5911181788226 449.62426877883934ZM1309.960918635825 487.51929699674196L1309.960918635825 487.51929699674196Q1309.960918635825 492.01014891429884 1307.6600500607803 494.3941814137426Q1305.359181485736 496.77821391318633 1299.0387232313965 496.77821391318633L1299.0387232313965 496.77821391318633L1231.786829700576 496.77821391318633Q1232.1749280144388 505.64903251576783 1234.9193375196123 512.0803760026394Q1237.636025716653 518.5117194895108 1242.12687763421 522.1709321630758Q1246.5900082436337 525.8301448366406 1251.9679420214486 527.5211446327577Q1257.3181544911306 529.2398657370079 1263.666334053603 529.2398657370079L1263.666334053603 529.2398657370079Q1272.5371526561844 529.2398657370079 1281.7960695726288 526.1073579179713Q1291.0549864890731 523.0025714070678 1298.5397396850012 517.3474245479222L1298.5397396850012 517.3474245479222Q1304.1117226197478 523.8896532673259 1304.1117226197478 530.2101115216651L1304.1117226197478 530.2101115216651Q1304.1117226197478 534.3960290497582 1298.5397396850012 538.4433400371861Q1292.995478058388 542.490651024614 1283.542511985012 545.1241752972553Q1274.0895459116362 547.7576995698967 1263.8603832105343 547.7576995698967L1263.8603832105343 547.7576995698967Q1255.4608268462152 547.7576995698967 1247.920631034021 546.0944210819125Q1240.3527139136936 544.4311425939286 1233.08973118283 540.3006676821017Q1225.8544697600996 536.1701927702745 1220.587421214817 529.8220132078022Q1215.3203726695342 523.501554953463 1212.1047009260983 513.5496053336919Q1208.8890291826624 503.5976557139208 1208.8890291826624 491.03990312964146L1208.8890291826624 491.03990312964146Q1208.8890291826624 478.7593636266928 1213.573930257151 468.5302009255911Q1218.231110023506 458.30103822448933 1225.9376336844987 451.81425212135167Q1233.6441573454913 445.32746601821395 1243.1525660351333 441.80685988531445Q1252.6332534166422 438.31397506054805 1262.6683669608124 438.31397506054805L1262.6683669608124 438.31397506054805Q1270.0976775404743 438.31397506054805 1276.917119341209 440.1713027054635Q1283.7365611419436 442.00090904224595 1289.779806314952 445.9650561052745Q1295.8230514879606 449.90148186017 1300.2861820973844 455.61207133558185Q1304.7770340149414 461.3226608109936 1307.3551156713165 469.5004467102484Q1309.960918635825 477.6782326095032 1309.960918635825 487.51929699674196ZM1232.3689771713703 481.6701009806648L1290.2510685532143 481.6701009806648Q1289.3917080010892 468.14210261172815 1281.7406269563626 461.07316903779605Q1274.0895459116362 454.00423546386395 1263.4722848966715 454.00423546386395L1263.4722848966715 454.00423546386395Q1252.16199117838 454.00423546386395 1242.9585168782019 461.54443127605816Q1233.7273212698906 469.11234839638547 1232.3689771713703 481.6701009806648L1232.3689771713703 481.6701009806648ZM1483.3299797000261 448.238203372186L1483.3299797000261 448.238203372186L1475.2353577251704 448.238203372186Q1474.3482758649122 448.238203372186 1472.989931766392 446.43631834353664Q1471.6315876678716 444.6344333148873 1469.8297026392222 441.80685988531445Q1468.0278176105733 438.9792864557416 1465.6992277273953 435.54184424724133Q1463.3429165360847 432.07668073060796 1460.182687408915 428.6669598302407Q1457.0224582817452 425.2572389298735 1453.4464095325798 422.4296655003006Q1449.8980820915472 419.6020920707278 1445.0745744763935 417.8002070420784Q1440.2510668612397 415.99832201342906 1435.0949035484894 415.99832201342906L1435.0949035484894 415.99832201342906Q1426.0300357889764 415.99832201342906 1418.3235121279838 419.269436373131Q1410.616988466991 422.5128294246998 1405.2667759973094 428.02936974318015Q1399.8888422194943 433.5459100616605 1396.063301697131 440.89205671692326Q1392.2100398666346 448.238203372186 1390.4081548379852 456.44371057957386Q1388.606269809336 464.62149647882865 1388.606269809336 473.1873806919463L1388.606269809336 473.1873806919463Q1388.606269809336 481.3928878993342 1390.7962531518483 489.12713286845985Q1392.9862364943606 496.8890991457186 1397.5048097200504 503.79170487085236Q1402.0511042538735 510.7220319041191 1408.427005124479 515.9336378331357Q1414.8029059950843 521.1452437621522 1423.8677737545975 524.2223089649227Q1432.9326415141102 527.2993741676931 1443.5499025290749 527.2993741676931L1443.5499025290749 527.2993741676931Q1466.2813751981896 527.2993741676931 1485.4645204262722 512.9674578628975L1485.4645204262722 512.9674578628975Q1489.2623396405024 518.0404572512488 1489.2623396405024 522.8916861745355L1489.2623396405024 522.8916861745355Q1489.2623396405024 529.9328984403345 1481.7221438283082 535.8098157645447Q1474.1542267079808 541.714454396888 1463.148867379153 544.7360769833923Q1452.1435080503254 547.7576995698967 1440.9440995645666 547.7576995698967L1440.9440995645666 547.7576995698967Q1425.9191505564443 547.7576995698967 1413.3059553558987 543.5717820418035Q1400.6927601553532 539.3858645137104 1391.905105477171 532.2614883235121Q1383.1451721071219 525.1371121333138 1376.963320393448 515.6564247518049Q1370.7537473716409 506.148016062163 1367.8984526339348 495.53075504719834Q1365.015436588096 484.8857727241006 1365.015436588096 473.60320031394235L1365.015436588096 473.60320031394235Q1365.015436588096 458.30103822448933 1369.977550743915 444.44038415795586Q1374.939664899734 430.6074513995554 1383.7273195779162 420.2674034659214Q1392.4872529479655 409.9550768404205 1405.4608251542406 403.85638905114575Q1418.406676052383 397.757701261871 1433.4316250605054 397.757701261871L1433.4316250605054 397.757701261871Q1442.9677550582803 397.757701261871 1452.7810981373862 401.9990614062302Q1462.566719908359 406.2404215505895 1468.6099650813674 414.52909268237653L1468.6099650813674 414.52909268237653Q1468.6099650813674 399.91996329625016 1472.4077842955976 399.91996329625016L1472.4077842955976 399.91996329625016L1483.3299797000261 399.91996329625016Q1488.0148807745143 399.91996329625016 1488.0148807745143 410.0382407648197L1488.0148807745143 410.0382407648197L1488.0148807745143 436.0685491017696Q1488.0148807745143 441.612810728383 1487.460454611853 444.2186136928913Q1486.933749757325 446.79669534926654 1486.1021105133327 447.43428543632706Q1485.2704712693405 448.04415421525454 1483.3299797000261 448.238203372186ZM1567.6304777326827 531.8733900096493L1567.6304777326827 531.8733900096493Q1560.5061015424847 539.3858645137104 1549.6393487543226 543.5717820418035Q1538.77259596616 547.7576995698967 1527.5731874804007 547.7576995698967L1527.5731874804007 547.7576995698967Q1513.6293694894682 547.7576995698967 1504.564501729955 540.3561102983676Q1495.4996339704423 532.9545210268388 1495.4996339704423 518.8998178033738L1495.4996339704423 518.8998178033738Q1495.4996339704423 503.90259010338457 1510.0255994321697 496.3069516749242L1510.0255994321697 496.3069516749242Q1520.947794836598 490.4577556588471 1547.44936541181 486.1609528982217L1547.44936541181 486.1609528982217Q1552.411479567629 485.27387103796354 1563.638609361521 483.6383138581126L1563.638609361521 483.6383138581126Q1563.638609361521 467.0609715945385 1559.452691833428 460.8236772645984Q1555.239052997202 454.5863829346584 1543.346611808116 454.5863829346584L1543.346611808116 454.5863829346584Q1534.697563670599 454.5863829346584 1524.0525813475015 458.49508738142083Q1513.435320332537 462.3760705200502 1507.1148620781976 469.3063975533169L1507.1148620781976 469.3063975533169Q1499.2142892602735 462.68100490951394 1499.2142892602735 456.3328253470416L1499.2142892602735 456.3328253470416Q1499.2142892602735 450.8717276448274 1506.7267637643347 446.63036750046814Q1514.2115169602628 442.41672866424193 1524.4129583532313 440.39307317052806Q1534.586678438067 438.3971389849472 1544.8158411391687 438.3971389849472L1544.8158411391687 438.3971389849472Q1554.4628563694757 438.3971389849472 1561.7258391003395 440.80889279252403Q1568.988821831203 443.1929252919678 1574.5330834578165 448.654022994182Q1580.1050663925628 454.0873993882631 1582.988082438402 463.65125069417127Q1585.843377176108 473.1873806919463 1585.843377176108 486.8539856015484L1585.843377176108 486.8539856015484L1585.843377176108 518.0404572512488Q1585.843377176108 522.0323256224103 1586.4809672631684 524.0282598079912Q1587.118557350229 526.024193993572 1587.8947539779547 526.4677349237011Q1588.6709506056807 526.9112758538301 1590.445114326197 527.1053250107616L1590.445114326197 527.1053250107616Q1593.439015604568 527.3825380920923 1594.9082449356208 527.63202986529Q1596.3774742666733 527.8815216384876 1598.317965835988 528.3527838767498Q1600.286178713436 528.8517674231449 1601.0900966492948 529.6279640508708Q1601.9217358932867 530.4041606785966 1601.9217358932867 531.5684556201854L1601.9217358932867 531.5684556201854Q1601.9217358932867 543.0727984954083 1598.706064149851 545.9003719249811L1598.706064149851 545.9003719249811Q1594.0488843834958 545.1241752972553 1586.5364098794346 545.1241752972553L1586.5364098794346 545.1241752972553Q1579.7169680787 545.1241752972553 1573.8677720626229 545.8172080005819L1573.8677720626229 545.8172080005819Q1573.1747393592962 545.3182244541867 1572.1490509583725 544.4311425939286Q1571.1233625574494 543.5717820418035 1569.376920145066 539.9680119845048Q1567.6304777326827 536.3642419272061 1567.6304777326827 531.8733900096493ZM1532.0640393979577 530.4041606785966L1532.0640393979577 530.4041606785966Q1540.9348580005392 530.4041606785966 1551.2471846260403 525.4974891390439Q1561.5872325596742 520.5630962913579 1563.7217732859203 516.5712279201962L1563.7217732859203 516.5712279201962L1563.7217732859203 499.3285742614285Q1537.109317478176 504.09663926031607 1527.8226792535986 507.89445847454624Q1518.508319720888 511.6922776887764 1518.508319720888 518.6226047220432L1518.508319720888 518.6226047220432Q1518.508319720888 530.4041606785966 1532.0640393979577 530.4041606785966ZM1697.3384784873033 519.2879161172368L1697.3384784873033 519.2879161172368Q1697.3384784873033 529.1289805044755 1691.3506759305608 535.6157666076133Q1685.3628733738185 542.1025527107508 1675.5218089865796 544.9301261403239Q1665.6807445993406 547.7576995698967 1652.2081888466703 547.7576995698967L1652.2081888466703 547.7576995698967Q1631.5558142875354 547.7576995698967 1619.9128648716471 541.7976183212872Q1608.269915455759 535.8652583808109 1608.269915455759 523.5847188778622L1608.269915455759 523.5847188778622Q1608.269915455759 509.64090088692944 1625.3185199575953 509.64090088692944L1625.3185199575953 509.64090088692944Q1628.062929462769 509.64090088692944 1628.922290014894 510.7220319041191Q1629.809371875152 511.8031629213087 1629.809371875152 514.824785507813L1629.809371875152 514.824785507813L1629.809371875152 528.075570795419Q1633.4131419324508 530.0160623647337 1640.4820755063831 531.0971933819233Q1647.551009080315 532.1506030909799 1654.7585491949123 532.1506030909799L1654.7585491949123 532.1506030909799Q1663.3244334080302 532.1506030909799 1668.9241376509096 528.6022756499474Q1674.523841893789 525.0539482089148 1674.523841893789 518.8166538789746L1674.523841893789 518.8166538789746Q1674.523841893789 514.4366871939501 1671.7239897723493 510.97152367731667Q1668.8964163427765 507.5063601606833 1664.2946791926875 505.3718194344371Q1659.7206633507315 503.2095574000579 1653.8160247183882 501.01957405754564Q1647.9391073941779 498.8295907150333 1641.8404196049032 496.97226307011783Q1635.7417318156286 495.11493542520236 1629.8648144914184 492.3150833037626Q1623.960175859075 489.48750987418975 1619.3861600171188 486.1609528982217Q1614.78442286703 482.86211723038673 1611.9568494374569 477.4841834525717Q1609.1569973160172 472.1339709828898 1609.1569973160172 465.39769310655447L1609.1569973160172 465.39769310655447Q1609.1569973160172 456.72092366090453 1615.5883408028888 450.4004654065652Q1622.01968428976 444.05228584409286 1631.3063225143376 441.22471241452007Q1640.6206820470484 438.3971389849472 1651.2379430620128 438.3971389849472L1651.2379430620128 438.3971389849472Q1694.8990033715934 438.3971389849472 1694.8990033715934 463.7344146185705L1694.8990033715934 463.7344146185705Q1694.8990033715934 465.3145291821553 1694.3722985170652 467.0609715945385Q1693.845593662537 468.80741400692176 1692.3209217152182 471.16372519823244Q1690.8239710760326 473.4923150814101 1687.247922326867 475.01698702872875Q1683.6995948858344 476.5139376679144 1678.5434315730838 476.5139376679144L1678.5434315730838 476.5139376679144Q1677.5454644802937 476.5139376679144 1676.935595701366 476.31988851098293Q1676.2980056143056 476.12583935405144 1675.9376286085756 475.87634758085386Q1675.6049729109789 475.6268558076562 1675.3554811377812 475.01698702872875Q1675.1337106727167 474.3793969416682 1675.0782680564505 474.07446255220447Q1675.0228254401843 473.7972494708738 1674.884218899519 472.77156106995034Q1674.7456123588538 471.7458726690268 1674.7456123588538 471.35777435516394L1674.7456123588538 471.35777435516394L1673.3595469522004 457.69116944556185Q1672.00120285368 456.3328253470416 1664.932269279748 454.66954685905756Q1657.8633357058159 453.0339896792066 1652.8180576255977 453.0339896792066L1652.8180576255977 453.0339896792066Q1642.8661080058266 453.0339896792066 1638.042600390673 456.72092366090453Q1633.2190927755194 460.43557895073553 1633.2190927755194 466.0907258098812L1633.2190927755194 466.0907258098812Q1633.2190927755194 470.165758105442 1636.767420216552 473.2982659244786Q1640.3434689657176 476.4030524353821 1645.9708945167301 478.6207570860275Q1651.6260413758757 480.81074042853976 1658.4454831766104 482.9452811547859Q1665.2926462854778 485.07982188103205 1672.1120880862122 488.0737231594033Q1678.931529886947 491.03990312964146 1684.5866767460923 494.8377223438717Q1690.2418236052383 498.63554155810186 1693.790151046271 504.9282785043081Q1697.3384784873033 511.22101545051424 1697.3384784873033 519.2879161172368ZM1772.5741087604472 525.6360956797091L1772.5741087604472 525.6360956797091Q1775.5125674225521 531.1803573063225 1775.5125674225521 536.0593075377424L1775.5125674225521 536.0593075377424Q1775.5125674225521 538.7759957347829 1773.1285349231086 540.7996512284967Q1770.716781115532 542.7955854140776 1766.9189619013016 543.8489951231342Q1763.1211426870716 544.9301261403239 1759.3233234728411 545.4291096867189Q1755.5255042586111 545.9003719249811 1751.9217342013123 545.9003719249811L1751.9217342013123 545.9003719249811Q1746.460636499098 545.9003719249811 1741.7757354246098 544.3479786695293Q1737.1185556582548 542.7955854140776 1732.8771955138952 539.219536664912Q1728.6358353695362 535.6712092238795 1726.196360253826 528.907210039411Q1723.7568851381163 522.1154895468096 1723.7568851381163 512.773408705966L1723.7568851381163 512.773408705966L1723.7568851381163 456.24966142264236L1719.570967610023 456.24966142264236Q1708.0666247348001 456.24966142264236 1706.9854937176108 456.3328253470416L1706.9854937176108 456.3328253470416Q1703.7698219741749 455.16853040545277 1703.7698219741749 448.8480721511135L1703.7698219741749 448.8480721511135Q1703.7698219741749 441.1415484901209 1708.6487722055947 441.1415484901209L1708.6487722055947 441.1415484901209L1723.7568851381163 441.1415484901209Q1724.1449834519792 438.0090406710843 1724.477639149576 432.99148389899915Q1724.8380161553057 427.973927126914 1725.1152292366367 425.063189772942Q1725.4201636261002 422.1247311108369 1726.030032405028 418.1328627396752Q1726.6676224920882 414.1409943685136 1727.8041961255442 411.84012579346904Q1728.9130484508667 409.56697852655753 1730.6594908632499 407.32155256777907Q1732.4336545837662 405.07612660900065 1735.205785397073 404.0504382080772Q1737.9779162103798 403.0247498071537 1741.7757354246098 403.0247498071537L1741.7757354246098 403.0247498071537Q1744.4092596972512 403.0247498071537 1745.8784890283039 403.91183166741183L1745.8784890283039 403.91183166741183L1745.8784890283039 441.1415484901209L1758.852061234579 441.1415484901209Q1770.439568034201 441.1415484901209 1771.0217155049952 440.64256494372563L1771.0217155049952 440.64256494372563Q1775.900665736415 440.64256494372563 1775.900665736415 449.04212130804495L1775.900665736415 449.04212130804495Q1775.900665736415 455.3625795623842 1772.6849939929796 456.52687450397303L1772.6849939929796 456.52687450397303Q1769.4693222495437 456.24966142264236 1760.099520100567 456.24966142264236L1760.099520100567 456.24966142264236L1745.8784890283039 456.24966142264236L1745.8784890283039 512.1912612351716Q1745.8784890283039 528.3527838767498 1756.4125861188693 528.3527838767498L1756.4125861188693 528.3527838767498Q1763.2320279196035 528.3527838767498 1772.5741087604472 525.6360956797091ZM1819.4508408134636 449.62426877883934L1819.4508408134636 449.62426877883934L1819.4508408134636 455.94472703317865Q1823.8308074984882 448.9312360755127 1832.5075769441385 443.66418753023Q1841.1843463897883 438.3971389849472 1849.0849192077123 438.3971389849472L1849.0849192077123 438.3971389849472Q1854.2410825204627 438.3971389849472 1858.9259835949513 440.1158600891974Q1863.6108846694394 441.80685988531445 1867.0760481860727 446.2145478784721Q1870.513490394573 450.5945145634967 1870.513490394573 456.914972817836L1870.513490394573 456.914972817836Q1870.513490394573 474.26851170913596 1852.1065417942166 474.26851170913596L1852.1065417942166 474.26851170913596Q1851.7184434803537 474.26851170913596 1851.3303451664908 474.18534778473673Q1850.942246852628 474.07446255220447 1850.69275507943 473.880413395273Q1850.4432633062327 473.6863642383415 1850.249214149301 473.4923150814101Q1850.0551649923693 473.2982659244786 1849.9165584517043 472.91016761061564Q1849.7779519110388 472.5220692967527 1849.6670666785064 472.217134907289Q1849.5839027541076 471.9399218259583 1849.4730175215752 471.30233173889775Q1849.389853597176 470.66474165183723 1849.3344109809098 470.2766433379743Q1849.2789683646436 469.88854502411135 1849.2235257483778 469.1677910126516Q1849.1680831321112 468.41931569305876 1849.0849192077123 467.94805345479665L1849.0849192077123 467.94805345479665L1847.9206242661232 457.8020546780941Q1845.287099993482 456.52687450397303 1842.1545921744453 456.52687450397303L1842.1545921744453 456.52687450397303Q1836.4994453152997 456.52687450397303 1830.816577148021 460.6850707239331Q1825.1059876726092 464.8155456357601 1822.3892994755686 470.2766433379743L1822.3892994755686 470.2766433379743L1822.3892994755686 519.5928505067005Q1822.3892994755686 521.0620798377531 1822.527906016234 521.8937190817451Q1822.666512556899 522.6976370176039 1823.220938719561 523.7787680347936Q1823.747643574089 524.8598990519832 1825.1059876726092 525.3866039065115Q1826.4643317711295 525.9133087610398 1828.6265938055087 525.9133087610398L1828.6265938055087 525.9133087610398Q1832.3135277872063 525.9133087610398 1834.9470520598481 527.1053250107616Q1837.580576332489 528.2696199523505 1837.580576332489 530.5982098355281L1837.580576332489 530.5982098355281Q1837.580576332489 535.2831109100164 1836.0281830770375 539.8571267519726Q1834.475789821586 544.4311425939286 1831.4541672350813 545.9003719249811L1831.4541672350813 545.9003719249811Q1824.634725434347 545.1241752972553 1811.4671040711403 545.1241752972553Q1798.2994827079335 545.1241752972553 1791.2859917502676 545.9003719249811L1791.2859917502676 545.9003719249811Q1788.0703200068317 544.4311425939286 1786.601090675779 539.9125693682386Q1785.1595826528599 535.3662748344157 1785.1595826528599 530.5982098355281L1785.1595826528599 530.5982098355281Q1785.1595826528599 528.2696199523505 1787.7931069255012 527.1053250107616Q1790.4266311981426 525.9133087610398 1794.1135651798402 525.9133087610398L1794.1135651798402 525.9133087610398Q1797.9113843940706 525.9133087610398 1799.0756793356593 524.3054728893219Q1800.267695585381 522.6976370176039 1800.267695585381 519.786899663632L1800.267695585381 519.786899663632L1800.267695585381 468.5302009255911Q1800.267695585381 463.34631630470756 1797.27379430701 461.21177557846136Q1794.3076143367718 459.0772348522152 1785.8248940480532 458.6891365383523L1785.8248940480532 458.6891365383523Q1784.5774351820653 458.38420214888856 1784.217058176335 457.4139563642312Q1783.8844024787388 456.44371057957386 1783.8844024787388 453.22803883613807L1783.8844024787388 453.22803883613807Q1783.8844024787388 448.238203372186 1784.9655334959282 444.44038415795586Q1786.018943204985 440.64256494372563 1787.1000742221743 440.06041747293125L1787.1000742221743 440.06041747293125Q1794.030401255441 441.1415484901209 1800.655793899244 441.1415484901209L1800.655793899244 441.1415484901209Q1804.7308261948049 441.1415484901209 1809.277120728628 440.5871223274595Q1813.795693954318 440.06041747293125 1814.1006283437816 440.06041747293125L1814.1006283437816 440.06041747293125Q1817.5103492441488 440.06041747293125 1818.4805950288062 441.7791385771814Q1819.4508408134636 443.4701383732985 1819.4508408134636 449.62426877883934ZM1882.4059315836587 516.8207196933938Q1877.7487518173036 506.148016062163 1877.7487518173036 492.98039469895616Q1877.7487518173036 479.84049464388244 1882.4059315836587 469.19551232078464Q1887.0908326581473 458.57825130582 1894.880520243539 452.0083012782831Q1902.6979291370637 445.4383512507462 1912.344944367371 441.9177451178467Q1921.9919595976783 438.3971389849472 1932.498335380111 438.3971389849472L1932.498335380111 438.3971389849472Q1942.9492685462772 438.3971389849472 1952.5962837765844 441.9177451178467Q1962.2432990068917 445.4383512507462 1969.9775439760176 452.0083012782831Q1977.7395102532762 458.57825130582 1982.3966900196313 469.19551232078464Q1987.0815910941199 479.84049464388244 1987.0815910941199 492.98039469895616Q1987.0815910941199 506.148016062163 1982.3966900196313 516.8207196933938Q1977.7395102532762 527.4934233246247 1969.9775439760176 534.1188159684277Q1962.2432990068917 540.7442086122306 1952.5962837765844 544.2370934369972Q1942.9492685462772 547.7576995698967 1932.498335380111 547.7576995698967L1932.498335380111 547.7576995698967Q1921.9919595976783 547.7576995698967 1912.344944367371 544.2370934369972Q1902.6979291370637 540.7442086122306 1894.880520243539 534.1188159684277Q1887.0908326581473 527.4934233246247 1882.4059315836587 516.8207196933938ZM1909.9886331760601 465.00959479269153Q1900.5356671026846 475.0447083368618 1900.5356671026846 492.98039469895616Q1900.5356671026846 510.91608106105053 1909.9886331760601 521.0066372214869Q1919.4415992494362 531.0971933819233 1932.3042862231794 531.0971933819233L1932.3042862231794 531.0971933819233Q1938.4584166287202 531.0971933819233 1944.1135634878658 528.6577182662134Q1949.7687103470118 526.2182431505034 1954.2872835727014 521.5887846922813Q1958.8335781065246 516.9593262340592 1961.5502663035652 509.55773696253027Q1964.2669545006058 502.15614769100137 1964.2669545006058 492.98039469895616Q1964.2669545006058 483.83236301504405 1961.5502663035652 476.4030524353821Q1958.8335781065246 469.0014631638532 1954.2872835727014 464.42744732189715Q1949.7687103470118 459.8534314799411 1944.1135634878658 457.4139563642312Q1938.4584166287202 454.9744812485213 1932.3042862231794 454.9744812485213L1932.3042862231794 454.9744812485213Q1919.4415992494362 454.9744812485213 1909.9886331760601 465.00959479269153Z " fill="#ffffff" transform="matrix(0.440344262339744,0,0,0.44034426233974394,0,91.82386229247402)"/></g></svg>